<?xml version="1.0" encoding="UTF-8"?>
<svg width="95px" height="140px" viewBox="0 0 95 140" version="1.1" xmlns="http://www.w3.org/2000/svg" xmlns:xlink="http://www.w3.org/1999/xlink">
    <!-- Generator: Sketch 52.1 (67048) - http://www.bohemiancoding.com/sketch -->
    <title>logo</title>
    <desc>Created with Sketch.</desc>
    <g id="logo" stroke="none" stroke-width="1" fill="none" fill-rule="evenodd">
        <g id="编组" transform="translate(0.000000, 1.000000)">
            <path d="M0,106.062167 C0.590481359,105.397007 0.953483324,104.935959 1.09658854,104.682756 L1.40844211,104.144544 C1.87429234,104.401343 2.47566513,104.763931 3.21311197,105.239084 C3.95372972,105.713684 4.5113989,106.090101 4.88929043,106.371929 C4.63961456,106.681553 4.42730046,106.955914 4.25855211,107.19197 C4.08621924,107.427472 3.82592766,107.842609 3.48429498,108.433785 C2.85314306,107.842609 1.69051656,107.050779 0,106.062167 Z M0.300548532,116.783263 C0.472881406,116.589662 0.722557273,116.301472 1.0484732,115.914546 C1.37521633,115.523747 1.92930099,114.580632 2.71403596,113.082018 C3.49918454,111.58617 4.01659676,110.418476 4.26944355,109.587788 L4.54807134,108.68035 C5.12021648,109.218147 5.83229591,109.750137 6.68665337,110.277701 C6.07066674,111.860946 5.44309935,113.345869 4.80532985,114.739385 C4.16673316,116.129028 3.47726379,117.434732 2.73278578,118.648337 C2.43196151,118.366923 2.13844416,118.106253 1.85581825,117.860102 C1.5733302,117.616994 1.05633158,117.258693 0.300548532,116.783263 Z M2.148922,101.28021 C2.74381508,100.66843 3.25295533,100.041991 3.67510193,99.4049036 C3.8989968,99.5633803 4.40151946,99.9118629 5.18625444,100.453532 C5.97140301,100.999212 6.58738963,101.446016 7.03903963,101.794222 C6.76702942,102.096794 6.54354815,102.364102 6.3637705,102.593105 C6.18399284,102.82515 5.91280983,103.240287 5.54580974,103.84543 C4.59232642,102.92043 3.4625121,102.061531 2.148922,101.28021 Z M19.7413511,100.713788 L19.7413511,103.208481 L17.6911414,103.124264 L10.1783931,103.124264 L10.1783931,115.998901 L17.2179842,115.998901 L20.0308703,115.949532 L20.0527911,118.46566 L17.2503828,118.391538 L9.92209967,118.391538 L7.5010296,118.46566 L7.58940189,116.09418 L7.58940189,102.979893 L7.5010296,100.734946 L9.97324807,100.81612 L17.5407292,100.81612 L19.7413511,100.713788 Z M55.4012965,99 C56.318521,99.5915908 56.8832214,99.9290105 57.0996715,100.010185 L57.8520079,100.330042 C57.4006336,100.819716 56.9531196,101.294316 56.505192,101.755779 L60.0854419,101.744716 C59.7555279,101.167783 59.4104485,100.604818 59.0553049,100.062734 C59.3190431,99.9890269 59.5609985,99.9048103 59.7844798,99.8165833 C60.0083746,99.7251758 60.4156317,99.4963112 61.0099733,99.1266707 C61.1967821,99.4191472 61.340301,99.6370871 61.4391511,99.7746825 L62.1910739,100.879317 L62.6017776,101.48446 L62.1797689,101.755779 L67.4363351,101.755779 L68.8741427,101.702815 L68.8741427,103.866588 L67.1792145,103.824272 L62.0843654,103.824272 L62.0843654,104.464816 L66.4347364,104.464816 L68.133525,104.411853 L68.133525,106.393087 L66.4168138,106.340123 L62.0843654,106.340123 L62.0843654,106.948862 L66.6183744,106.948862 L68.1554457,106.906546 L68.1554457,108.877132 L66.5118037,108.834816 L62.0843654,108.834816 L62.0843654,109.443555 L67.7481887,109.443555 L69.1672465,109.401239 L69.1672465,111.424651 L67.3078437,111.371825 L61.7510047,111.371825 L61.7510047,112.114149 L68.8010736,112.114149 L70.1871814,112.061738 L70.1871814,114.27806 L68.6943651,114.225096 L64.0945939,114.225096 C64.5459681,114.53472 64.9497785,114.795391 65.3014755,115.006693 C65.6578598,115.214123 66.3175501,115.513514 67.285923,115.896983 C68.2542959,116.280314 68.9729929,116.512359 69.4462879,116.586066 L70.3705435,116.76252 C70.1543692,117.015723 69.9453639,117.279436 69.7362207,117.546883 C69.5272154,117.814606 69.2192221,118.299854 68.811965,119 C67.4437799,118.574215 66.2592326,118.103072 65.2616321,117.582146 C64.2598956,117.065092 63.0895486,116.308525 61.7510047,115.319913 L61.7510047,117.237535 L61.8057376,118.834886 L59.2161949,118.834886 L59.2568654,117.135203 L59.2568654,115.773908 C57.7155202,116.709556 56.4137866,117.392416 55.3465636,117.828711 C54.278927,118.265006 53.0974128,118.641699 51.7992637,118.957684 C51.6565721,118.627179 51.5279429,118.352818 51.4068962,118.127411 C51.2891584,117.905875 50.9227098,117.392416 50.3060339,116.586066 C50.7940805,116.56878 51.2493151,116.533932 51.6710481,116.491616 C52.0927811,116.445705 52.7970021,116.272847 53.7837112,115.97069 C54.7669737,115.66798 55.4965621,115.368866 55.9694435,115.073347 L57.3778857,114.225096 L51.6710481,114.225096 L50.5228975,114.27806 L50.5228975,112.061738 L51.7769294,112.114149 L59.2568654,112.114149 L59.2568654,111.371825 L55.8639758,111.371825 L55.8639758,111.783367 L53.519973,111.783367 L53.6039336,110.062941 L53.6039336,104.566734 C52.8372591,105.144219 52.0527999,105.671783 51.2415946,106.146522 C50.8679769,105.37585 50.5810771,104.841095 50.3833768,104.538523 L49.9288317,103.866588 C50.2255199,103.757618 50.5705993,103.609928 50.9734446,103.430293 C51.3732569,103.24734 52.0410812,102.758081 52.9763662,101.959613 C53.9119269,101.164188 54.5833358,100.407759 54.990455,99.6935081 L55.4012965,99 Z M59.6234519,103.84543 L55.8639758,103.84543 L55.8639758,104.464816 L59.6234519,104.464816 L59.6234519,103.84543 Z M55.8639758,106.948862 L59.6234519,106.948862 L59.6234519,106.340123 L55.8639758,106.340123 L55.8639758,106.948862 Z M55.8639758,108.834816 L55.8639758,109.443555 L59.6234519,109.443555 L59.6234519,108.834816 L55.8639758,108.834816 Z M78.6454167,112.754278 C79.3898947,112.332504 80.097976,111.829278 80.7728315,111.241559 C81.4478249,110.653979 82.2368338,109.464713 83.1457863,107.670165 L81.2457129,107.670165 L79.0120032,107.723129 L79.0120032,105.425218 L81.139418,105.474586 L85.1050043,105.474586 L85.1050043,104.805832 L85.0498577,103.032857 L87.6724883,103.032857 L87.6177554,104.805832 L87.6177554,105.474586 L89.187639,105.474586 L90.9189639,105.425218 L90.9189639,107.723129 L89.187639,107.670165 L87.6615969,107.670165 L87.6615969,114.091373 C87.6615969,114.478714 87.5736382,114.777828 87.404752,114.996183 C87.2328327,115.210528 86.8104104,115.390024 86.1464463,115.527343 C85.4788977,115.664523 84.6394298,115.703244 83.6194949,115.650833 C83.6120501,115.464146 83.6046053,115.274001 83.5971605,115.076943 C83.5937139,114.883618 83.5604881,114.63 83.5023085,114.323833 C83.4467484,114.017666 83.3662345,113.785621 83.2669708,113.62023 L83.0181221,113.197626 C83.6929776,113.285853 84.1220175,113.327753 84.3088264,113.321116 C84.8368543,113.321116 85.1050043,113.142034 85.1050043,112.782904 L85.1050043,109.053171 C84.4304245,110.157806 83.7223431,111.195786 82.9774515,112.166698 C82.229389,113.134567 81.3047197,113.993466 80.1933795,114.742842 C79.9220586,114.123594 79.6431551,113.686884 79.3643894,113.433681 L78.6454167,112.754278 Z M75.8499017,100.393516 L77.9371975,100.463765 L92.1550732,100.463765 L94,100.393516 L93.9269309,102.332711 L93.9269309,116.287367 L94,118.567162 L91.4327916,118.567162 L91.4327916,118.268463 L78.5280925,118.268463 L78.5280925,118.567162 L75.8835411,118.567162 L75.9491655,115.97069 L75.9163533,102.803992 L75.8499017,100.393516 Z M78.5280925,116.09418 L91.4327916,116.09418 L91.4327916,102.659759 L78.5280925,102.659759 L78.5280925,116.09418 Z" id="Fill-1" fill="#231916"></path>
            <path d="M2,136.802644 L2,125.196966 L11.5741598,125.196966 L11.5741598,127.161432 L4.82181688,127.161432 L4.82181688,129.906746 L10.6512493,129.906746 L10.6512493,131.871602 L4.82181688,131.871602 L4.82181688,136.802644 L2,136.802644 Z M18.2586254,136.802644 L18.2586254,125.196966 L21.0782304,125.196966 L21.0782304,136.802644 L18.2586254,136.802644 Z M31.3545265,136.802644 L31.3545265,127.161432 L27.2124887,127.161432 L27.2124887,125.196966 L38.3087043,125.196966 L38.3087043,127.161432 L34.1768964,127.161432 L34.1768964,136.802644 L31.3545265,136.802644 Z M43.6538713,131.071654 C43.6538713,129.887907 43.8653832,128.89645 44.2914482,128.093643 C44.6103749,127.504694 45.0426609,126.972521 45.5920387,126.502192 C46.1414166,126.034463 46.7424973,125.686134 47.3958339,125.459285 C48.2677327,125.151363 49.2688888,125 50.4069055,125 C52.4650678,125 54.1097452,125.529574 55.3448085,126.591711 C56.5808395,127.650989 57.1983712,129.125897 57.1983712,131.014617 C57.1983712,132.890213 56.5836044,134.354598 55.3582181,135.413746 C54.1324171,136.470036 52.4936841,137 50.4457518,137 C48.3683736,137 46.7162311,136.473024 45.4908448,135.421931 C44.265182,134.36824 43.6538713,132.916718 43.6538713,131.071654 Z M46.5575281,130.993179 C46.5575281,132.306461 46.9251163,133.303505 47.6528277,133.981453 C48.3845481,134.659921 49.3111912,134.997596 50.4355218,134.997596 C51.5577788,134.997596 52.4806893,134.66291 53.2024562,133.98704 C53.920767,133.314159 54.2821343,132.306461 54.2821343,130.960828 C54.2821343,129.631565 53.930997,128.639458 53.2319019,127.982817 C52.5296273,127.329035 51.5970398,127.002014 50.4355218,127.002014 C49.2720684,127.002014 48.3354718,127.334622 47.6237966,127.99646 C46.9150246,128.658167 46.5575281,129.655601 46.5575281,130.993179 Z M63.8735745,136.802644 L63.8735745,125.196966 L66.6174223,125.196966 L72.3323894,132.946991 L72.3323894,125.196966 L74.9532009,125.196966 L74.9532009,136.802644 L72.1212923,136.802644 L66.4935565,129.234255 L66.4935565,136.802644 L63.8735745,136.802644 Z M82.381967,136.802644 L82.381967,125.196966 L92.7336057,125.196966 L92.7336057,127.161432 L85.2006043,127.161432 L85.2006043,129.733946 L92.2100793,129.733946 L92.2100793,131.687758 L85.2006043,131.687758 L85.2006043,134.846234 L93,134.846234 L93,136.802644 L82.381967,136.802644 Z" id="Fill-2" fill="#231916"></path>
            <g transform="translate(25.000000, 100.000000)" fill="#231916">
                <path d="M3.31788618,5.02933314 C3.90934959,4.4710844 4.20203252,4.12868112 4.41490515,3.96565747 C4.62913279,3.80142723 4.98794038,3.5563555 5.3401084,3.32522658 L4.46056911,2.21033789 C4.33224932,2.06125705 3.699729,1.32483526 2.57235772,0 C1.90243902,0.527949936 1.33279133,0.929610172 1.11544715,1.06340754 L0.475203252,1.42096023 C1.38509485,2.4842337 1.98848238,3.21435441 2.26883469,3.59322351 C2.57235772,4.01003315 2.91693767,4.4710844 3.31788618,5.02933314" id="Fill-3"></path>
                <path d="M10.9437669,2.25431137 L10.5577236,2.73051202 C10.4567751,2.84192045 10.2359079,3.07291531 9.7,3.43019986 C10.2055556,3.8167107 10.7044715,4.2107292 11.2056911,4.6276729 L8.53888889,4.6276729 L6.63604336,4.5895983 L6.67411924,6.24168745 L6.67411924,13.7927926 L6.63604336,15.2806515 L9.10081301,15.2806515 L9.07127371,13.8145112 L9.07127371,12.5652889 L11.3294038,12.5652889 L11.3294038,13.9117087 L11.2437669,15.5180815 L13.745393,15.5180815 L13.6777778,13.9117087 L13.6777778,12.5652889 L16.3069106,12.5652889 L16.3069106,13.2273044 L16.2547425,13.4203587 L15.7380759,13.5317671 C15.4380759,13.5616637 15.1392954,13.5616637 14.6594851,13.5176902 L14.9737127,14.2085297 C15.0563686,14.409628 15.1654472,14.8413189 15.3631436,15.6369976 C15.8990515,15.6369976 16.4275068,15.592622 16.9668022,15.4956926 C17.498374,15.414717 17.8203252,15.2806515 18.0680217,15.1468542 L18.5212737,14.6113966 L18.6073171,13.5616637 C18.6672087,7.49841744 18.6898374,7.86320966 18.6898374,6.21165678 C18.6898374,4.41182745 17.4004065,4.6276729 17.4004065,4.6276729 L14.3368564,4.6276729 C15.7380759,3.75731968 17.1841463,2.85666766 18.6672087,1.89716088 L17.3482385,0.334895617 L8.53888889,0.334895617 L6.44905149,0.27523647 L6.44905149,2.32885179 L8.53888889,2.25431137 L10.9437669,2.25431137 Z M11.3294038,10.668128 L9.07127371,10.668128 L9.07127371,9.65660385 L11.3294038,9.65660385 L11.3294038,10.668128 Z M16.3069106,10.668128 L13.6777778,10.668128 L13.6777778,9.65660385 L16.3069106,9.65660385 L16.3069106,10.668128 Z M16.3069106,6.58409073 L16.3069106,7.70018602 L13.6777778,7.70018602 L13.6777778,6.58409073 L16.3069106,6.58409073 Z M14.5619241,2.21033789 C14.097561,2.51466657 13.351626,2.96807609 12.8308943,3.26596963 C12.5093496,3.00574849 12.1762873,2.58156525 11.7860434,2.25431137 L14.5619241,2.21033789 Z M11.3294038,7.70018602 L9.07127371,7.70018602 L9.07127371,6.58409073 L11.3294038,6.58409073 L11.3294038,7.70018602 Z" id="Fill-4"></path>
                <path d="M0,15.6230548 C0.471680217,16.9390418 0.366124661,16.69397 0.471680217,17.0135822 C1.49796748,16.0247151 3.02560976,14.8119586 5.92818428,14.8854264 C5.62520325,14.7222687 5.15311653,14.4624498 4.90650407,14.0606555 L4.90650407,7.10426487 L4.95880759,5.57994014 L3.39308943,5.63933116 L1.32208672,5.63933116 L0.0933604336,5.57994014 L0.0933604336,7.84832839 L1.32208672,7.82674385 L2.39607046,7.82674385 L2.39607046,14.1868111 C2.39607046,14.1868111 0.695663957,15.0130568 0,15.6230548" id="Fill-5"></path>
                <path d="M10.2131436,16.0387919 C2.89837398,14.3210107 1.0597561,17.162529 0.695663957,17.6979866 C0.695663957,17.6979866 3.4899729,15.9122341 9.9097561,18.0555392 C14.3898374,19.5585476 18.8727642,19.7439601 20,14.9979074 C20,14.9979074 18.0899729,17.8838013 10.2131436,16.0387919" id="Fill-6"></path>
            </g>
            <g transform="translate(5.000000, 0.000000)">
                <path d="M1.55551225,28.37945 C7.80746229,11.8009375 23.8891006,0 42.7452043,0 C63.325116,0 65.0071632,18.1949625 50.7488951,22.540375 C39.6748181,25.91545 29.0287202,24.243725 18.7001149,25.344 C8.37150953,26.444275 5.49955629,31.2621375 5.49955629,31.2621375 C5.49955629,31.2621375 8.88065932,29.652425 13.4303731,35.459875 C17.9796721,41.2674625 36.9144575,65.7449375 36.9144575,65.7449375 C12.9239889,63.5338 -5.60120883,52.790375 1.55551225,28.37945" id="Fill-7" fill="#009A90"></path>
                <path d="M39.8276184,54.2356375 L48.6789703,65.608125 C73.1277012,63.5448 93.5610353,51.290525 82.9894707,26.0682125 C82.9894707,26.0682125 83.876127,33.2387 76.0882925,41.389425 C68.3008728,49.5405625 53.7017426,53.0943875 39.8276184,54.2356375" id="Fill-8" fill="#009A90"></path>
                <path d="M24.8294098,34.9644625 L33.7245967,46.3940125 C36.6800716,46.4800875 40.2388654,46.3331 43.9465876,45.8467625 C59.3206432,43.83005 78.2198905,36.4810875 76.2423372,20.421225 C75.1981792,11.9416 68.0359268,7.949975 68.0359268,7.949975 C76.6809638,32.9209375 39.7923568,36.0438375 24.8294098,34.9644625" id="Fill-9" fill="#009A90"></path>
                <path d="M43.1892238,87.449725 C24.3947934,87.6594125 8.21746476,76.1437875 1.68715554,59.7452625 C10.8009643,70.25645 29.4963857,73.414 42.6937638,73.327375 C55.3428587,73.2447375 75.2898593,70.4072875 83.7005104,59.7452625 C77.3022593,75.8044375 61.6333891,87.2438875 43.1892238,87.449725" id="Fill-10" fill="#39B383"></path>
            </g>
        </g>
    </g>
</svg>